<?xml version="1.0" standalone="no"?>
<!DOCTYPE svg PUBLIC "-//W3C//DTD SVG 20010904//EN"
 "http://www.w3.org/TR/2001/REC-SVG-20010904/DTD/svg10.dtd">
<svg version="1.0" xmlns="http://www.w3.org/2000/svg"
 width="500.000000pt" height="500.000000pt" viewBox="0 0 500.000000 500.000000"
 preserveAspectRatio="xMidYMid meet">
<metadata>
Created by potrace 1.14, written by Peter Selinger 2001-2017
</metadata>
<g transform="translate(0.000000,500.000000) scale(0.100000,-0.100000)"
fill="#000000" stroke="none">
<path d="M367 2812 c-24 -27 -21 -72 8 -114 l25 -37 -32 -17 c-156 -78 -193
-273 -76 -400 56 -60 107 -78 205 -70 43 3 87 5 98 5 11 -1 61 -2 110 -3 89
-1 92 0 140 34 96 69 133 202 86 307 -54 118 -190 179 -305 138 -26 -9 -46
-11 -63 -4 l-25 9 26 31 c14 17 29 42 32 56 15 58 -38 98 -100 75 -20 -8 -34
-8 -40 -2 -17 17 -72 11 -89 -8z m88 -29 c12 -28 22 -29 30 -4 12 38 78 39 90
1 10 -31 -40 -106 -87 -131 -33 -18 -118 67 -118 118 0 46 66 58 85 16z m306
-147 c57 -10 113 -57 144 -121 24 -47 27 -64 22 -114 -14 -157 -147 -248 -300
-204 -35 9 12 31 55 25 86 -11 180 57 203 146 38 146 -93 273 -241 233 -53
-14 -120 -84 -130 -136 -11 -58 1 -122 30 -159 22 -29 23 -35 10 -40 -22 -8
-31 -1 -53 42 -70 139 8 303 159 333 19 3 42 5 50 4 8 -2 31 -6 51 -9z m-313
-8 c9 -9 21 -8 51 2 43 14 69 7 51 -15 -7 -8 -25 -11 -54 -8 -149 17 -259
-136 -197 -272 76 -169 313 -143 362 39 13 48 0 112 -31 156 -11 15 -17 30
-13 34 17 17 36 1 58 -46 34 -72 33 -138 -1 -207 -107 -214 -426 -136 -426
104 0 92 44 165 127 208 36 19 57 21 73 5z m62 -44 c0 -3 -8 -18 -19 -32 -53
-76 -53 -196 1 -274 17 -25 17 -27 1 -32 -24 -7 -87 8 -119 29 -14 9 -34 30
-44 48 -56 91 -22 204 74 248 39 18 106 26 106 13z m284 -23 c45 -28 76 -88
76 -147 0 -57 -23 -100 -72 -137 -34 -26 -112 -45 -121 -30 -3 5 5 32 19 60
35 69 34 144 0 219 -14 31 -26 59 -26 62 0 11 95 -9 124 -27z m-172 -61 c24
-46 23 -120 -3 -171 -22 -44 -33 -45 -61 -8 -37 50 -36 144 3 193 26 33 37 30
61 -14z"/>
<path d="M532 2719 c-7 -11 -11 -23 -9 -25 7 -7 29 24 25 36 -2 6 -9 1 -16
-11z"/>
<path d="M490 2675 c-8 -9 -8 -15 -2 -15 12 0 26 19 19 26 -2 2 -10 -2 -17
-11z"/>
<path d="M330 2252 c0 -4 9 -13 20 -20 22 -13 27 -3 8 16 -14 14 -28 16 -28 4z"/>
<path d="M380 2222 c0 -15 84 -33 119 -26 52 11 43 20 -17 20 -31 -1 -67 3
-79 7 -14 5 -23 4 -23 -1z"/>
<path d="M842 2737 c2 -31 7 -56 12 -55 12 4 8 90 -5 103 -7 7 -9 -10 -7 -48z"/>
<path d="M908 2696 c-16 -19 -28 -41 -28 -48 1 -15 70 57 70 72 0 19 -15 10
-42 -24z"/>
<path d="M1833 2720 c-58 -12 -98 -35 -143 -81 -55 -57 -74 -112 -68 -198 10
-135 97 -225 239 -245 55 -8 169 15 217 44 l32 20 0 105 0 105 -55 0 -55 0 0
-70 c0 -66 -1 -71 -26 -80 -42 -16 -114 -12 -148 9 -94 59 -93 209 2 264 47
28 122 25 177 -7 l43 -26 36 44 c33 41 34 44 18 59 -52 47 -183 75 -269 57z"/>
<path d="M3518 2717 c-128 -36 -207 -148 -195 -277 6 -72 35 -127 91 -177 54
-48 118 -69 202 -66 154 3 267 114 267 263 0 76 -17 122 -67 178 -66 72 -197
107 -298 79z m183 -143 c36 -35 53 -85 45 -136 -13 -80 -69 -128 -150 -128
-103 0 -169 123 -120 225 39 84 157 104 225 39z"/>
<path d="M1156 2512 c-50 -114 -100 -231 -113 -259 l-23 -53 69 0 68 0 21 50
21 50 111 0 111 0 21 -50 21 -50 69 0 c63 0 69 2 64 18 -4 9 -53 126 -109 259
l-102 243 -70 0 -70 0 -89 -208z m224 -104 c0 -5 -31 -8 -70 -8 -38 0 -70 2
-70 5 0 6 60 157 67 169 5 8 71 -144 73 -166z"/>
<path d="M2286 2512 c-50 -114 -100 -231 -113 -259 l-23 -53 69 0 68 0 21 50
21 50 111 0 111 0 21 -50 21 -50 69 0 c63 0 69 2 64 18 -4 9 -53 126 -109 259
l-102 243 -70 0 -70 0 -89 -208z m220 -94 c5 -16 -3 -18 -65 -18 -39 0 -71 2
-71 5 0 6 60 157 67 169 5 8 47 -87 69 -156z"/>
<path d="M2780 2460 l0 -262 158 4 c147 3 160 5 208 30 93 49 135 120 135 229
1 107 -44 183 -136 232 -35 19 -59 22 -202 25 l-163 4 0 -262z m299 134 c37
-22 71 -86 71 -134 0 -47 -34 -112 -69 -133 -20 -11 -50 -17 -95 -17 l-66 0 0
156 0 157 64 -5 c35 -3 78 -14 95 -24z"/>
<path d="M3950 2460 l0 -260 180 0 180 0 0 55 0 55 -110 0 -110 0 0 205 0 205
-70 0 -70 0 0 -260z"/>
<path d="M4370 2460 l0 -260 180 0 180 0 0 55 0 55 -110 0 -110 0 0 205 0 205
-70 0 -70 0 0 -260z"/>
<path d="M912 2629 c2 -6 7 -10 11 -10 4 1 27 1 52 1 25 0 45 5 45 10 0 6 -25
10 -56 10 -35 0 -54 -4 -52 -11z"/>
</g>
</svg>
